#!OML:ASF Y:\EmotionMaleHayes\Project 1\Capture day 1\Session 1\Male1.ASF
:FULLY-SPECIFIED
:DEGREES
1044
root 14.6357 16.9269 -15.1109 177.374 71.6002 180.898
lowerback 4.41653 -0.0953615 -0.922036
upperback 0.420167 -0.0937492 2.31367
thorax -2.03906 -0.0182795 2.90422
lowerneck -20.9842 -3.46863 -2.17221
upperneck 26.146 -4.96739 3.67031
head 12.2838 -1.79075 0.958784
rclavicle 5.30631e-014 1.11319e-014
rhumerus -36.9754 0.503496 -82.7663
rradius 35.5608
rwrist 0.543247
rhand -10.0557 -31.611
rfingers 7.12502
rthumb 15.93 -60.9759
lclavicle 5.30631e-014 1.11319e-014
lhumerus -41.6176 -9.31264 93.3818
lradius 32.2628
lwrist -5.7903
lhand -10.6718 -21.4891
lfingers 7.12502
lthumb 15.3366 7.92218
rfemur 3.10417 -18.0367 24.6604
rtibia 8.78001
rfoot -16.7538 -15.7587
rtoes 28.2731
lfemur 11.6156 13.1342 -7.36756
ltibia 49.3334
lfoot 1.36429 14.5164
ltoes 13.574
1045
root 14.7234 16.9314 -15.1298 177.769 71.9654 181.394
lowerback 4.71432 0.0437442 -0.654006
upperback 0.34605 0.105395 2.2391
thorax -2.293 0.0811047 2.66478
lowerneck -20.9877 -3.56323 -2.2042
upperneck 26.3302 -5.10646 3.72051
head 12.3653 -1.84196 0.961242
rclavicle -6.37353e-015 8.74653e-015
rhumerus -36.3683 1.1361 -83.0597
rradius 35.8784
rwrist 0.127806
rhand -9.58598 -32.5223
rfingers 7.12502
rthumb 16.3823 -61.8505
lclavicle -6.37353e-015 8.74653e-015
lhumerus -41.7512 -8.38488 92.7699
lradius 31.5886
lwrist -6.92576
lhand -12.143 -23.5313
lfingers 7.12502
lthumb 13.9192 5.98286
rfemur 3.80398 -17.7313 24.7995
rtibia 8.32477
rfoot -16.7538 -15.7587
rtoes 28.2731
lfemur 10.4232 12.8505 -7.33289
ltibia 50.1732
lfoot 0.539447 13.6306
ltoes 14.2898
1046
root 14.8247 16.9372 -15.1555 178.392 72.6837 182.157
lowerback 4.73932 0.290894 -0.293116
upperback 0.406184 0.453185 2.19558
thorax -2.25981 0.250725 2.39315
lowerneck -20.7292 -3.48689 -2.12143
upperneck 26.2507 -5.01842 3.71312
head 12.276 -1.79886 0.962639
rclavicle 6.03187e-015 -7.95139e-016
rhumerus -35.6163 1.79369 -83.3045
rradius 35.9042
rwrist -0.0457138
rhand -9.59488 -32.6811
rfingers 7.12502
rthumb 16.3737 -62.01
lclavicle 6.03187e-015 -7.95139e-016
lhumerus -41.8817 -7.43643 92.1255
lradius 31.1298
lwrist -8.01871
lhand -10.0726 -20.9717
lfingers 7.12502
lthumb 15.9137 8.39452
rfemur 4.57471 -17.3693 25.03
rtibia 7.90385
rfoot -16.7538 -15.7587
rtoes 28.2731
lfemur 9.53543 12.9984 -7.05033
ltibia 50.903
lfoot -0.48011 12.6565
ltoes 13.2526
1047
root 14.9094 16.9402 -15.172 179.59 73.0998 183.5
lowerback 4.99384 0.567193 0.375931
upperback 0.272327 0.85692 2.00743
thorax -2.54529 0.44501 1.79293
lowerneck -20.3491 -3.67339 -1.80798
upperneck 26.2664 -5.37824 3.69493
head 12.2085 -1.92764 0.849546
rclavicle 1.59276e-014 0
rhumerus -35.291 1.94023 -83.638
rradius 35.9017
rwrist 0.12003
rhand -9.92975 -32.3128
rfingers 7.12502
rthumb 16.0513 -61.6679
lclavicle 1.59276e-014 0
lhumerus -42.3761 -7.38726 91.6189
lradius 30.741
lwrist -7.99484
lhand -10.1026 -20.8116
lfingers 7.12502
lthumb 15.8848 8.55692
rfemur 5.19332 -17.1037 25.454
rtibia 7.5294
rfoot -16.7538 -15.7587
rtoes 28.2731
lfemur 8.34934 12.926 -6.63635
ltibia 51.8442
lfoot -1.2179 11.9833
ltoes 12.7626
1048
root 14.9969 16.9449 -15.1909 179.893 73.5003 183.874
lowerback 5.18423 0.670851 0.477648
upperback 0.341864 1.0052 2.03071
thorax -2.58341 0.518538 1.74739
lowerneck -20.8587 -3.6948 -1.85309
upperneck 26.5385 -5.36561 3.56101
head 12.415 -1.93401 0.801839
rclavicle -5.01062e-014 -3.18055e-014
rhumerus -34.3395 2.86551 -83.7556
rradius 35.8748
rwrist 0.253794
rhand -9.72198 -32.1842
rfingers 7.12502
rthumb 16.2514 -61.5231
lclavicle -5.01062e-014 -3.18055e-014
lhumerus -42.3176 -6.37326 91.1029
lradius 30.0831
lwrist -8.22148
lhand -12.6863 -24.4404
lfingers 7.12502
lthumb 13.3956 5.10892
rfemur 5.83022 -17.0084 25.4659
rtibia 7.17861
rfoot -16.7538 -15.7587
rtoes 28.2731
lfemur 7.1448 12.773 -6.71326
ltibia 52.3816
lfoot -1.08099 11.9321
ltoes 9.38022
1049
root 15.0867 16.9493 -15.2105 180.649 73.9486 184.695
lowerback 5.26792 0.902888 0.757069
upperback 0.424119 1.33535 2.08969
thorax -2.54981 0.681377 1.62612
lowerneck -21.1278 -3.91998 -2.30207
upperneck 26.6987 -5.58563 3.72244
head 12.5614 -2.04895 0.897365
rclavicle -4.99509e-014 1.19271e-014
rhumerus -33.471 3.28485 -83.5732
rradius 36.0717
rwrist 0.386173
rhand -9.36684 -32.2241
rfingers 7.12502
rthumb 16.5933 -61.5347
lclavicle -4.99509e-014 1.19271e-014
lhumerus -42.2437 -5.67552 90.7749
lradius 29.4774
lwrist -8.75665
lhand -10.0142 -20.3997
lfingers 7.12502
lthumb 15.97 8.96197
rfemur 6.43763 -16.751 25.6904
rtibia 6.82234
rfoot -16.7538 -15.7587
rtoes 28.2731
lfemur 5.98781 12.5741 -6.68094
ltibia 52.7993
lfoot -2.07357 11.2646
ltoes 3.0008
